<svg xmlns="http://www.w3.org/2000/svg" viewBox="0 0 430 150" width="430" height="150" role="img" aria-label="Melodigo">
  <path d="M6.072 120.0V51.46000000000001H19.872L45.54 85.5H39.1L64.032 51.46000000000001H77.832V120.0H63.571999999999996V67.19200000000001L69.276 68.48L42.872 102.52H41.032L15.548 68.48L20.332 67.19200000000001V120.0Z M110.584 121.104Q102.58 121.104 96.69200000000001 117.562Q90.804 114.02 87.584 108.03999999999999Q84.364 102.06 84.364 94.792Q84.364 87.24799999999999 87.72200000000001 81.36Q91.08 75.47200000000001 96.78399999999999 72.06800000000001Q102.488 68.664 109.664 68.664Q115.644 68.664 120.244 70.55000000000001Q124.844 72.436 128.018 75.84Q131.192 79.244 132.848 83.706Q134.50400000000002 88.168 134.50400000000002 93.412Q134.50400000000002 94.884 134.366 96.31Q134.228 97.736 133.86 98.748H96.232V88.628H126.03999999999999L119.50800000000001 93.412Q120.428 89.456 119.416 86.374Q118.404 83.292 115.874 81.498Q113.344 79.70400000000001 109.664 79.70400000000001Q106.07600000000001 79.70400000000001 103.5 81.452Q100.924 83.2 99.636 86.604Q98.348 90.008 98.624 94.884Q98.256 99.116 99.636 102.336Q101.016 105.556 103.868 107.35Q106.72 109.144 110.768 109.144Q114.44800000000001 109.144 117.07000000000001 107.672Q119.69200000000001 106.2 121.164 103.624L132.204 108.868Q130.732 112.548 127.55799999999999 115.30799999999999Q124.384 118.068 120.06 119.586Q115.736 121.104 110.584 121.104Z M140.024 120.0V50.355999999999995H153.824V120.0Z M186.29999999999998 121.104Q178.84799999999998 121.104 172.73 117.7Q166.612 114.296 162.978 108.362Q159.344 102.428 159.344 94.884Q159.344 87.24799999999999 162.978 81.36Q166.612 75.47200000000001 172.73 72.06800000000001Q178.84799999999998 68.664 186.29999999999998 68.664Q193.752 68.664 199.824 72.06800000000001Q205.896 75.47200000000001 209.52999999999997 81.36Q213.164 87.24799999999999 213.164 94.884Q213.164 102.428 209.52999999999997 108.362Q205.896 114.296 199.824 117.7Q193.752 121.104 186.29999999999998 121.104ZM186.29999999999998 108.684Q190.072 108.684 192.878 106.936Q195.684 105.188 197.29399999999998 102.06Q198.904 98.932 198.904 94.884Q198.904 90.836 197.29399999999998 87.75399999999999Q195.684 84.672 192.878 82.878Q190.072 81.084 186.29999999999998 81.084Q182.528 81.084 179.676 82.878Q176.82399999999998 84.672 175.214 87.75399999999999Q173.60399999999998 90.836 173.60399999999998 94.884Q173.60399999999998 98.932 175.214 102.06Q176.82399999999998 105.188 179.676 106.936Q182.528 108.684 186.29999999999998 108.684Z M242.328 121.104Q234.968 121.104 229.172 117.608Q223.376 114.112 220.018 108.132Q216.66 102.152 216.66 94.884Q216.66 87.524 220.064 81.59Q223.468 75.656 229.264 72.16Q235.06 68.664 242.236 68.664Q247.756 68.664 252.034 70.73400000000001Q256.312 72.804 258.796 76.576L256.68 79.336V50.355999999999995H270.48V120.0H257.6V110.8L258.888 113.652Q256.312 117.332 251.89600000000002 119.21799999999999Q247.48 121.104 242.328 121.104ZM243.98399999999998 108.684Q247.756 108.684 250.608 106.936Q253.45999999999998 105.188 255.07 102.06Q256.68 98.932 256.68 94.884Q256.68 90.836 255.07 87.708Q253.45999999999998 84.58 250.608 82.832Q247.756 81.084 243.98399999999998 81.084Q240.212 81.084 237.22199999999998 82.878Q234.232 84.672 232.576 87.75399999999999Q230.92 90.836 230.92 94.884Q230.92 98.932 232.576 102.06Q234.232 105.188 237.22199999999998 106.936Q240.212 108.684 243.98399999999998 108.684Z" fill="#111111"/>
  <g transform="translate(273.96 120.00) scale(1.0000)">
    <ellipse cx="13" cy="-9" rx="14" ry="9.5" transform="rotate(-22 13 -9)" fill="#111111"/>
    <rect x="21" y="-72" width="8" height="66" rx="4" fill="#111111"/>
  </g>
  <path d="M337.68 140.24Q331.884 140.24 326.916 138.308Q321.948 136.376 318.40599999999995 132.926Q314.864 129.476 313.3 124.784L326.088 120.276Q327.1 123.772 330.228 125.79599999999999Q333.356 127.82 337.68 127.82Q341.084 127.82 343.568 126.578Q346.052 125.336 347.386 122.944Q348.72 120.552 348.72 117.332V105.832L351.388 109.144Q348.812 113.376 344.764 115.446Q340.716 117.516 335.288 117.516Q328.296 117.516 322.77599999999995 114.34200000000001Q317.256 111.168 314.128 105.602Q311.0 100.036 311.0 92.952Q311.0 85.868 314.128 80.394Q317.256 74.92 322.68399999999997 71.792Q328.112 68.664 335.012 68.664Q340.44 68.664 344.488 70.826Q348.536 72.988 351.388 77.404L349.64 80.71600000000001V69.768H362.52V117.332Q362.52 123.956 359.29999999999995 129.154Q356.08 134.352 350.514 137.296Q344.948 140.24 337.68 140.24ZM337.22 105.004Q340.716 105.004 343.29200000000003 103.53200000000001Q345.868 102.06 347.294 99.392Q348.72 96.724 348.72 93.136Q348.72 89.548 347.24800000000005 86.834Q345.776 84.12 343.20000000000005 82.602Q340.624 81.084 337.22 81.084Q333.724 81.084 331.01 82.602Q328.296 84.12 326.778 86.834Q325.26 89.548 325.26 93.136Q325.26 96.632 326.778 99.30000000000001Q328.296 101.968 331.01 103.486Q333.724 105.004 337.22 105.004Z M394.99600000000004 121.104Q387.54400000000004 121.104 381.42600000000004 117.7Q375.308 114.296 371.674 108.362Q368.04 102.428 368.04 94.884Q368.04 87.24799999999999 371.674 81.36Q375.308 75.47200000000001 381.42600000000004 72.06800000000001Q387.54400000000004 68.664 394.99600000000004 68.664Q402.44800000000004 68.664 408.52000000000004 72.06800000000001Q414.59200000000004 75.47200000000001 418.226 81.36Q421.86 87.24799999999999 421.86 94.884Q421.86 102.428 418.226 108.362Q414.59200000000004 114.296 408.52000000000004 117.7Q402.44800000000004 121.104 394.99600000000004 121.104ZM394.99600000000004 108.684Q398.76800000000003 108.684 401.574 106.936Q404.38 105.188 405.99 102.06Q407.6 98.932 407.6 94.884Q407.6 90.836 405.99 87.75399999999999Q404.38 84.672 401.574 82.878Q398.76800000000003 81.084 394.99600000000004 81.084Q391.22400000000005 81.084 388.37200000000007 82.878Q385.52000000000004 84.672 383.91 87.75399999999999Q382.3 90.836 382.3 94.884Q382.3 98.932 383.91 102.06Q385.52000000000004 105.188 388.37200000000007 106.936Q391.22400000000005 108.684 394.99600000000004 108.684Z" fill="#111111"/>
</svg>
